<svg xmlns="http://www.w3.org/2000/svg" xmlns:xlink="http://www.w3.org/1999/xlink" width="1080" viewBox="0 0 810 809.999993" height="1080" preserveAspectRatio="xMidYMid meet"><defs><clipPath id="9c74d3159d"><path d="M 152.28125 81 L 657.78125 81 L 657.78125 708 L 152.28125 708 Z M 152.28125 81 " clip-rule="nonzero"></path></clipPath></defs><g clip-path="url(#9c74d3159d)"><path fill="#26d155" d="M 475.207031 543.921875 C 536.558594 447.332031 603.605469 340.117188 603.605469 281.703125 C 603.605469 171.003906 513.558594 80.945312 402.875 80.945312 C 292.175781 80.945312 202.117188 171.003906 202.117188 281.703125 C 202.117188 336.746094 271.824219 449.800781 331.148438 544.25 C 244.257812 552.453125 152.570312 577.222656 152.570312 623.992188 C 152.570312 649.460938 180.132812 670.945312 232.277344 686.132812 C 379.335938 728.957031 657.417969 704.867188 657.417969 623.992188 C 657.417969 576.457031 563.832031 551.78125 475.207031 543.921875 Z M 402.878906 608.652344 C 350.296875 520.382812 229.113281 344.378906 229.113281 281.703125 C 229.113281 185.890625 307.0625 107.941406 402.875 107.941406 C 498.671875 107.941406 576.613281 185.890625 576.613281 281.703125 C 576.613281 348.484375 456.023438 519.609375 402.878906 608.652344 Z M 402.878906 608.652344 " fill-opacity="1" fill-rule="nonzero"></path></g><path fill="#26d155" d="M 402.875 177.449219 C 349.289062 177.449219 305.695312 221.050781 305.695312 274.644531 C 305.695312 328.214844 349.289062 371.796875 402.875 371.796875 C 456.445312 371.796875 500.027344 328.214844 500.027344 274.644531 C 500.027344 221.050781 456.445312 177.449219 402.875 177.449219 Z M 402.875 344.800781 C 364.175781 344.800781 332.691406 313.328125 332.691406 274.644531 C 332.691406 235.9375 364.175781 204.445312 402.875 204.445312 C 441.5625 204.445312 473.035156 235.9375 473.035156 274.644531 C 473.035156 313.328125 441.5625 344.800781 402.875 344.800781 Z M 402.875 344.800781 " fill-opacity="1" fill-rule="nonzero"></path></svg>